<?xml version="1.0" standalone="no"?>
<!DOCTYPE svg PUBLIC "-//W3C//DTD SVG 20010904//EN"
 "http://www.w3.org/TR/2001/REC-SVG-20010904/DTD/svg10.dtd">
<svg version="1.0" xmlns="http://www.w3.org/2000/svg"
 width="40.000000pt" height="40.000000pt" viewBox="0 0 40.000000 40.000000"
 preserveAspectRatio="xMidYMid meet">
<metadata>
Created by potrace 1.10, written by Peter Selinger 2001-2011
</metadata>
<g transform="translate(0.000000,40.000000) scale(0.100000,-0.100000)"
fill="#000000" stroke="none">
<path d="M149 358 c-21 -18 -62 -147 -57 -183 3 -26 8 -30 36 -33 29 -3 32 -6
26 -30 -7 -26 -6 -27 13 -10 26 24 43 23 43 -2 0 -17 5 -19 33 -14 17 3 43 14
57 24 21 15 25 25 25 68 -1 28 -7 62 -15 76 -17 33 -8 43 22 22 12 -9 19 -16
14 -16 -5 0 3 -9 17 -20 35 -28 37 -26 23 23 -12 39 -15 42 -45 39 -26 -2 -39
5 -65 33 -27 28 -41 35 -73 35 -21 0 -46 -6 -54 -12z m118 -44 c6 -6 15 -36
18 -65 3 -30 8 -65 11 -79 6 -25 6 -25 -14 3 -11 16 -23 52 -26 80 -4 29 -14
63 -23 77 -16 24 -16 25 3 10 10 -8 24 -20 31 -26z m-45 -1 c20 -18 24 -48 8
-58 -7 -4 -5 -14 5 -28 20 -29 19 -84 -2 -95 -48 -27 -100 34 -94 112 5 74 43
106 83 69z"/>
<path d="M159 244 c-13 -16 -12 -17 10 -11 20 5 23 3 18 -19 -2 -15 0 -24 8
-24 9 0 10 10 6 32 -8 37 -23 45 -42 22z"/>
<path d="M26 298 c-21 -30 -21 -62 0 -54 9 3 21 6 27 6 7 0 17 8 23 18 9 14 7
21 -12 35 -22 16 -23 16 -38 -5z"/>
<path d="M362 125 c-16 -33 -28 -45 -44 -46 -13 0 -17 -3 -10 -6 21 -8 13 -19
-30 -38 -24 -10 -37 -20 -31 -22 19 -7 89 36 112 68 19 26 40 89 29 89 -2 0
-14 -20 -26 -45z"/>
<path d="M10 150 c0 -26 51 -99 82 -118 18 -11 49 -23 68 -27 l35 -7 -32 34
c-18 19 -33 40 -33 47 0 9 -10 11 -39 6 -37 -6 -39 -5 -46 24 -7 32 -35 64
-35 41z"/>
</g>
</svg>
