<?xml version="1.0" standalone="no"?>
<!DOCTYPE svg PUBLIC "-//W3C//DTD SVG 20010904//EN"
 "http://www.w3.org/TR/2001/REC-SVG-20010904/DTD/svg10.dtd">
<svg version="1.0" xmlns="http://www.w3.org/2000/svg"
 width="40.000000pt" height="40.000000pt" viewBox="0 0 40.000000 40.000000"
 preserveAspectRatio="xMidYMid meet">
<metadata>
Created by potrace 1.10, written by Peter Selinger 2001-2011
</metadata>
<g transform="translate(0.000000,40.000000) scale(0.100000,-0.100000)"
fill="#000000" stroke="none">
<path d="M152 389 c-91 -17 -144 -84 -145 -182 -1 -78 23 -129 76 -168 45 -33
69 -38 44 -11 -29 31 -19 36 17 8 42 -32 72 -33 103 -4 24 22 33 12 11 -11
-11 -11 -8 -12 12 -6 77 23 123 89 123 180 0 141 -98 220 -241 194z m-17 -63
c-15 -19 -32 -34 -38 -33 -7 1 -12 -5 -12 -13 0 -8 -6 -19 -13 -23 -21 -14
-13 -28 15 -25 22 2 32 13 50 50 13 29 33 53 52 63 17 8 31 12 31 8 0 -5 5 -1
10 7 8 13 10 13 10 -1 0 -9 9 -23 21 -30 24 -16 38 -75 39 -163 0 -56 -2 -61
-40 -98 -23 -21 -49 -38 -58 -38 -25 0 -90 46 -97 70 -7 23 -21 26 -28 8 -2
-7 -8 -10 -12 -6 -4 4 0 14 9 23 9 9 16 13 17 8 2 -17 17 43 18 72 l0 30 -38
-43 -38 -43 -7 31 c-4 23 -1 40 14 60 11 15 24 40 30 55 6 16 16 25 24 22 7
-3 23 8 36 25 12 16 24 27 27 24 3 -2 -7 -21 -22 -40z m216 -47 c5 -11 8 -19
5 -19 -3 0 2 -16 10 -35 16 -40 18 -59 4 -50 -6 3 -10 -5 -10 -19 0 -14 -5
-28 -12 -32 -8 -5 -9 -2 -5 9 3 10 2 17 -3 17 -6 0 -10 -5 -10 -12 0 -6 -2 -9
-5 -6 -3 3 1 18 10 34 12 24 13 31 1 39 -17 13 -33 61 -17 51 12 -8 4 21 -11
41 -7 8 -3 10 12 6 11 -3 25 -14 31 -24z"/>
<path d="M145 230 c19 -8 19 -9 -2 -9 -13 -1 -23 -5 -23 -11 0 -5 16 -9 35 -7
25 1 34 6 30 15 -3 8 -5 16 -5 18 0 2 -12 4 -27 3 -25 0 -26 -1 -8 -9z"/>
<path d="M218 222 c-4 -15 1 -19 28 -20 19 -1 34 3 34 8 0 6 -10 10 -22 10
-19 0 -20 2 -8 10 12 8 11 10 -6 10 -13 0 -24 -8 -26 -18z"/>
<path d="M130 131 c0 -11 58 -61 71 -61 5 0 18 9 30 21 15 15 18 24 10 32 -8
8 -14 7 -23 -2 -10 -11 -10 -13 0 -7 6 4 12 3 12 -3 0 -20 -34 -30 -55 -15
-16 12 -17 14 -2 14 9 0 17 5 17 10 0 6 -11 8 -26 4 -19 -5 -25 -4 -20 5 4 6
2 11 -3 11 -6 0 -11 -4 -11 -9z"/>
</g>
</svg>
