<?xml version="1.0" standalone="no"?>
<!DOCTYPE svg PUBLIC "-//W3C//DTD SVG 20010904//EN"
 "http://www.w3.org/TR/2001/REC-SVG-20010904/DTD/svg10.dtd">
<svg version="1.0" xmlns="http://www.w3.org/2000/svg"
 width="40.000000pt" height="40.000000pt" viewBox="0 0 40.000000 40.000000"
 preserveAspectRatio="xMidYMid meet">
<metadata>
Created by potrace 1.10, written by Peter Selinger 2001-2011
</metadata>
<g transform="translate(0.000000,40.000000) scale(0.100000,-0.100000)"
fill="#000000" stroke="none">
<path d="M140 387 c-45 -12 -84 -40 -109 -80 -26 -42 -26 -156 -1 -207 17 -32
68 -80 87 -80 12 0 9 41 -5 67 -7 12 -12 31 -12 42 0 12 -4 21 -9 21 -5 0 -11
19 -15 42 -5 32 -3 44 9 50 18 11 20 34 3 44 -7 5 -8 3 -3 -6 5 -9 4 -11 -3
-6 -16 10 -15 26 1 26 7 0 21 9 31 21 13 16 25 20 46 15 22 -4 28 -2 24 8 -7
20 12 29 28 14 7 -7 22 -15 33 -17 32 -5 55 -21 55 -36 0 -8 6 -15 13 -15 8 0
8 -3 1 -8 -6 -4 -9 -42 -9 -92 l2 -85 -40 -37 c-43 -41 -85 -50 -107 -23 -16
19 -30 19 -30 0 0 -15 38 -41 47 -31 3 2 17 0 31 -5 21 -8 30 -5 54 18 15 14
28 33 28 40 0 7 5 13 10 13 6 0 10 -9 10 -21 0 -29 18 -20 53 28 25 36 30 50
30 106 0 77 -22 128 -70 164 -38 29 -123 50 -134 32 -4 -6 -8 -7 -10 -2 -3 6
-17 6 -39 0z m201 -201 c-3 -22 -12 -41 -20 -44 -11 -4 -12 1 -7 19 3 13 9 53
13 89 l7 65 7 -45 c4 -25 4 -63 0 -84z m-286 32 c3 -24 11 -55 16 -70 6 -14 9
-35 7 -45 -5 -21 -48 100 -48 134 0 39 18 25 25 -19z"/>
<path d="M115 240 c-11 -18 9 -38 30 -29 19 7 19 8 -3 8 -13 1 -20 5 -17 11 3
6 18 7 32 4 18 -5 24 -3 19 5 -9 14 -53 15 -61 1z"/>
<path d="M219 229 c-6 -12 -9 -37 -6 -55 3 -20 1 -34 -6 -37 -6 -2 -3 -6 7
-10 17 -7 18 -3 12 36 -5 35 -3 47 11 60 13 11 23 13 33 7 12 -8 10 -10 -9
-10 -25 0 -22 -12 4 -16 15 -2 28 23 19 37 -10 17 -53 9 -65 -12z"/>
<path d="M180 208 c0 -7 -3 -30 -6 -50 -4 -21 -3 -38 3 -38 5 0 10 23 11 50 1
28 0 50 -3 50 -3 0 -5 -6 -5 -12z"/>
<path d="M160 104 c7 -8 27 -14 44 -14 33 0 65 15 54 25 -3 4 -15 1 -27 -7
-16 -10 -27 -10 -52 -1 -26 10 -29 10 -19 -3z"/>
</g>
</svg>
